<svg xmlns="http://www.w3.org/2000/svg" width="760" height="81" viewBox="0 0 760 81" role="img" aria-label="Tech stack">
<rect x="4" y="4" width="77" height="32" rx="8" ry="8" fill="#3776AB"/>
<text x="42.5" y="20.0" fill="#ffffff" font-family="-apple-system,BlinkMacSystemFont,'Segoe UI',Helvetica,Arial,sans-serif" font-size="14" font-weight="600" text-anchor="middle" dominant-baseline="central">Python</text>
<rect x="90" y="4" width="109" height="32" rx="8" ry="8" fill="#3178C6"/>
<text x="144.5" y="20.0" fill="#ffffff" font-family="-apple-system,BlinkMacSystemFont,'Segoe UI',Helvetica,Arial,sans-serif" font-size="14" font-weight="600" text-anchor="middle" dominant-baseline="central">TypeScript</text>
<rect x="208" y="4" width="109" height="32" rx="8" ry="8" fill="#F7DF1E"/>
<text x="262.5" y="20.0" fill="#111111" font-family="-apple-system,BlinkMacSystemFont,'Segoe UI',Helvetica,Arial,sans-serif" font-size="14" font-weight="600" text-anchor="middle" dominant-baseline="central">JavaScript</text>
<rect x="326" y="4" width="69" height="32" rx="8" ry="8" fill="#149ECA"/>
<text x="360.5" y="20.0" fill="#ffffff" font-family="-apple-system,BlinkMacSystemFont,'Segoe UI',Helvetica,Arial,sans-serif" font-size="14" font-weight="600" text-anchor="middle" dominant-baseline="central">React</text>
<rect x="404" y="4" width="85" height="32" rx="8" ry="8" fill="#2b2b3a"/>
<text x="446.5" y="20.0" fill="#ffffff" font-family="-apple-system,BlinkMacSystemFont,'Segoe UI',Helvetica,Arial,sans-serif" font-size="14" font-weight="600" text-anchor="middle" dominant-baseline="central">Next.js</text>
<rect x="498" y="4" width="124" height="32" rx="8" ry="8" fill="#61DAFB"/>
<text x="560.0" y="20.0" fill="#111111" font-family="-apple-system,BlinkMacSystemFont,'Segoe UI',Helvetica,Arial,sans-serif" font-size="14" font-weight="600" text-anchor="middle" dominant-baseline="central">React Native</text>
<rect x="631" y="4" width="85" height="32" rx="8" ry="8" fill="#009688"/>
<text x="673.5" y="20.0" fill="#ffffff" font-family="-apple-system,BlinkMacSystemFont,'Segoe UI',Helvetica,Arial,sans-serif" font-size="14" font-weight="600" text-anchor="middle" dominant-baseline="central">FastAPI</text>
<rect x="4" y="45" width="109" height="32" rx="8" ry="8" fill="#4169E1"/>
<text x="58.5" y="61.0" fill="#ffffff" font-family="-apple-system,BlinkMacSystemFont,'Segoe UI',Helvetica,Arial,sans-serif" font-size="14" font-weight="600" text-anchor="middle" dominant-baseline="central">PostgreSQL</text>
<rect x="122" y="45" width="93" height="32" rx="8" ry="8" fill="#3ECF8E"/>
<text x="168.5" y="61.0" fill="#111111" font-family="-apple-system,BlinkMacSystemFont,'Segoe UI',Helvetica,Arial,sans-serif" font-size="14" font-weight="600" text-anchor="middle" dominant-baseline="central">Supabase</text>
<rect x="224" y="45" width="77" height="32" rx="8" ry="8" fill="#2b2b3a"/>
<text x="262.5" y="61.0" fill="#ffffff" font-family="-apple-system,BlinkMacSystemFont,'Segoe UI',Helvetica,Arial,sans-serif" font-size="14" font-weight="600" text-anchor="middle" dominant-baseline="central">Vercel</text>
<rect x="310" y="45" width="53" height="32" rx="8" ry="8" fill="#F05032"/>
<text x="336.5" y="61.0" fill="#ffffff" font-family="-apple-system,BlinkMacSystemFont,'Segoe UI',Helvetica,Arial,sans-serif" font-size="14" font-weight="600" text-anchor="middle" dominant-baseline="central">Git</text>
<rect x="372" y="45" width="109" height="32" rx="8" ry="8" fill="#D97757"/>
<text x="426.5" y="61.0" fill="#ffffff" font-family="-apple-system,BlinkMacSystemFont,'Segoe UI',Helvetica,Arial,sans-serif" font-size="14" font-weight="600" text-anchor="middle" dominant-baseline="central">Claude API</text>
</svg>